<svg width="40" height="40" viewBox="0 0 40 40" fill="none" xmlns="http://www.w3.org/2000/svg">
<rect width="40" height="40" rx="20" fill="url(#paint0_linear_455_3862)"/>
<path fill-rule="evenodd" clip-rule="evenodd" d="M14 11C11.7909 11 10 12.7909 10 15V24C10 26.2091 11.7909 28 14 28H27C29.2091 28 31 26.2091 31 24V15C31 12.7909 29.2091 11 27 11H14ZM27.1339 14.0014C26.2856 13.9624 25.4958 14.7473 25.5885 15.5029C25.5202 16.3366 26.3051 16.985 27.0413 16.9996C27.8944 17.0191 28.5526 16.2781 28.5721 15.5468C28.5916 14.679 27.8457 14.0355 27.1339 14.0014ZM20.6105 16.0764C18.2443 15.9825 16.487 17.8578 16.4961 20.015C16.5082 22.2236 18.2473 23.9203 20.3711 23.9445C22.6525 23.9688 24.3188 22.2055 24.3673 20.1119C24.4188 17.7973 22.6131 16.1552 20.6105 16.0764ZM20.4287 17.4761C21.8072 17.464 22.9706 18.6032 22.9494 20.0089C22.9948 21.339 21.8072 22.6175 20.2893 22.5266C18.9623 22.4509 17.8989 21.3753 17.9019 20.0089C17.9049 18.5941 18.9926 17.4882 20.4287 17.4761Z" fill="white"/>
<defs>
<linearGradient id="paint0_linear_455_3862" x1="10.6667" y1="3.33333" x2="23.3333" y2="38.6667" gradientUnits="userSpaceOnUse">
<stop stop-color="#6F41E5"/>
<stop offset="0.494792" stop-color="#EC3187"/>
<stop offset="1" stop-color="#EEBA45"/>
</linearGradient>
</defs>
</svg>
