<svg width="36" height="36" viewBox="0 0 36 36" fill="none" xmlns="http://www.w3.org/2000/svg">
<mask id="mask0_455_4837" style="mask-type:alpha" maskUnits="userSpaceOnUse" x="0" y="0" width="36" height="36">
<circle cx="18" cy="18" r="18" fill="#2EB34A"/>
</mask>
<g mask="url(#mask0_455_4837)">
<circle cx="18" cy="18" r="18" fill="white"/>
<path d="M18.6067 17.3735C17.2215 17.3735 16.0989 18.4792 16.0989 19.8435C16.0989 21.2079 17.2215 22.3187 18.6067 22.3187C19.9919 22.3187 21.1144 21.213 21.1144 19.8435C21.1144 18.4741 19.9919 17.3735 18.6067 17.3735Z" fill="#2EB34A"/>
<path d="M43.401 17.1148C41.9077 17.1148 40.6976 18.3067 40.6976 19.7776C40.6976 21.2485 41.9077 22.4404 43.401 22.4404C44.8943 22.4404 46.1045 21.2485 46.1045 19.7776C46.1045 18.3067 44.8943 17.1148 43.401 17.1148Z" fill="#2EB34A"/>
<path d="M65.8472 -7.2002H12.4531C7.06688 -7.2002 2.7002 -2.89917 2.7002 2.40611V33.619C2.7002 38.9243 7.06688 43.2253 12.4531 43.2253H31.3102L37.7264 58.1115C37.7264 58.1115 38.1692 59.3998 39.2352 59.3998C40.3062 59.3998 40.7439 58.1115 40.7439 58.1115L47.1601 43.2253H65.8472C71.2335 43.2253 75.6002 38.9243 75.6002 33.619V2.40611C75.6002 -2.89917 71.2335 -7.2002 65.8472 -7.2002ZM25.5996 20.3913C25.5687 26.0973 19.5799 26.2596 19.5799 26.2596C17.2627 26.2596 15.9547 24.7481 15.9547 24.7481V25.7777H11.5932V8.05628C11.5932 8.05628 11.5726 8.05121 11.5932 8.04614V8.05628C11.8661 8.09686 15.9547 8.04614 15.9547 8.04614V14.8223C16.9795 13.0978 19.9455 13.1283 19.9455 13.1283C26.4029 13.7217 25.5944 20.3913 25.5944 20.3913H25.5996ZM33.2773 13.676V25.8082H29.0085V13.7978C29.0085 12.1646 26.9487 11.7081 26.9487 11.7081V7.47301C33.7665 7.74689 33.2773 13.676 33.2773 13.676ZM43.3959 26.2697C39.4411 26.2697 36.2382 23.3635 36.2382 19.7827C36.2382 16.2019 39.4411 13.2956 43.3959 13.2956C47.3506 13.2956 50.5535 16.2019 50.5535 19.7827C50.5535 23.3635 47.3506 26.2697 43.3959 26.2697ZM66.7844 26.2697C66.7844 26.2697 66.8462 32.4322 60.4867 32.4322H58.5505V28.4405H59.7195C59.7195 28.4405 62.392 28.684 62.3611 24.6264C62.3611 24.6264 61.841 26.2697 58.0922 26.2697C58.0922 26.2697 52.7781 25.8944 52.7781 20.7869V18.8494C52.7781 18.8494 52.9017 13.5543 58.7359 13.1333C58.7359 13.1333 61.0377 12.8899 62.4538 14.7665V13.4681H66.7844V26.2748V26.2697Z" fill="#2EB34A"/>
<path d="M60.0027 17.1757C58.5454 17.1757 57.361 18.3422 57.361 19.7776C57.361 21.213 58.5454 22.3795 60.0027 22.3795C61.4599 22.3795 62.6443 21.213 62.6443 19.7776C62.6443 18.3422 61.4599 17.1757 60.0027 17.1757Z" fill="#2EB34A"/>
<rect x="26.0996" y="5.40039" width="10.8" height="23.4" fill="#2EB34A"/>
<rect x="-2.7002" y="5.40039" width="10.8" height="23.4" fill="#2EB34A"/>
</g>
</svg>
