<svg width="40" height="40" viewBox="0 0 40 40" fill="none" xmlns="http://www.w3.org/2000/svg">
<circle cx="20" cy="20" r="20" fill="#EF3030"/>
<path fill-rule="evenodd" clip-rule="evenodd" d="M20.036 11C23.0905 11 26.7267 11.1757 27.4539 11.3514C28.763 11.5271 29.4902 12.23 30.072 14.1629C30.2175 14.69 30.3629 18.2043 30.3629 19.4343V19.7857C30.3629 21.0157 30.2175 24.3543 30.072 25.0571C29.6357 26.8143 28.9084 27.6929 27.5994 27.8686C26.7267 28.0443 23.0905 28.22 20.1815 28.22C17.2725 28.22 13.4908 28.0443 12.7635 27.8686C11.4545 27.6929 10.7272 26.99 10.2909 25.0571C10.1454 24.53 10 21.0157 10 19.7857V19.4343C10 18.2043 10.1454 14.8657 10.2909 14.1629C10.5818 12.23 11.309 11.5271 12.6181 11.3514C13.4908 11.1757 17.127 11 20.036 11ZM19.5547 17.0365C18.8901 16.5934 18 17.0698 18 17.8685V22.1315C18 22.9302 18.8901 23.4066 19.5547 22.9635L22.7519 20.8321C23.3457 20.4362 23.3457 19.5638 22.7519 19.1679L19.5547 17.0365Z" fill="white"/>
</svg>
