<svg width="15" height="12" viewBox="0 0 15 12" fill="none" xmlns="http://www.w3.org/2000/svg">
<path d="M5.6559 11.056C5.5039 11.056 5.3519 11 5.2319 10.88L0.375904 6.024C0.143904 5.792 0.143904 5.408 0.375904 5.176L5.2319 0.319996C5.4639 0.0879961 5.8479 0.0879961 6.0799 0.319996C6.3119 0.551996 6.3119 0.935996 6.0799 1.168L1.6479 5.6L6.0799 10.032C6.3119 10.264 6.3119 10.648 6.0799 10.88C5.9679 11 5.8079 11.056 5.6559 11.056Z" fill="white"/>
<path d="M14.3999 6.2H0.935937C0.607937 6.2 0.335938 5.928 0.335938 5.6C0.335938 5.272 0.607937 5 0.935937 5H14.3999C14.7279 5 14.9999 5.272 14.9999 5.6C14.9999 5.928 14.7279 6.2 14.3999 6.2Z" fill="white"/>
</svg>
