<svg width="11" height="12" viewBox="0 0 11 12" fill="none" xmlns="http://www.w3.org/2000/svg">
<path d="M0.00227638 5.78661C0.0306997 4.40495 0.0449114 3.71411 0.510746 3.12272C0.595771 3.01478 0.720522 2.88652 0.825083 2.79955C1.39795 2.32306 2.1543 2.32306 3.66699 2.32306C4.20744 2.32306 4.47766 2.32306 4.73525 2.25339C4.78877 2.23891 4.84173 2.22222 4.89401 2.20335C5.14557 2.11256 5.37119 1.95628 5.82244 1.64371C7.60275 0.410536 8.4929 -0.206051 9.24004 0.0618039C9.38329 0.113159 9.52195 0.187289 9.64579 0.278717C10.2917 0.755583 10.3408 1.86507 10.4389 4.08403C10.4752 4.90565 10.5 5.60886 10.5 6C10.5 6.39114 10.4752 7.09435 10.4389 7.91597C10.3408 10.1349 10.2917 11.2444 9.64579 11.7213C9.52195 11.8127 9.38329 11.8868 9.24004 11.9382C8.4929 12.2061 7.60275 11.5895 5.82243 10.3563C5.37119 10.0437 5.14557 9.88744 4.89401 9.79665C4.84173 9.77778 4.78877 9.76109 4.73525 9.74661C4.47766 9.67694 4.20744 9.67694 3.66699 9.67694C2.1543 9.67694 1.39795 9.67694 0.825083 9.20045C0.720522 9.11348 0.595771 8.98522 0.510746 8.87728C0.0449115 8.28589 0.0306998 7.59506 0.00227639 6.21339C0.000783511 6.14082 0 6.06959 0 6C0 5.93041 0.000783507 5.85918 0.00227638 5.78661Z" fill="#E1930D"/>
</svg>
