<svg width="40" height="40" viewBox="0 0 40 40" fill="none" xmlns="http://www.w3.org/2000/svg">
<mask id="mask0_455_3871" style="mask-type:alpha" maskUnits="userSpaceOnUse" x="0" y="0" width="40" height="40">
<circle cx="20" cy="20" r="20" fill="#2EB34A"/>
</mask>
<g mask="url(#mask0_455_3871)">
<circle cx="20" cy="20" r="20" fill="white"/>
<path d="M20.6739 19.3041C19.1348 19.3041 17.8875 20.5326 17.8875 22.0486C17.8875 23.5645 19.1348 24.7987 20.6739 24.7987C22.213 24.7987 23.4603 23.5702 23.4603 22.0486C23.4603 20.527 22.213 19.3041 20.6739 19.3041Z" fill="#2EB34A"/>
<path d="M48.2231 19.0167C46.5639 19.0167 45.2193 20.341 45.2193 21.9753C45.2193 23.6096 46.5639 24.934 48.2231 24.934C49.8824 24.934 51.227 23.6096 51.227 21.9753C51.227 20.341 49.8824 19.0167 48.2231 19.0167Z" fill="#2EB34A"/>
<path d="M73.1634 -8H13.8366C7.85187 -8 3 -3.22108 3 2.67367V37.3547C3 43.2494 7.85187 48.0283 13.8366 48.0283H34.7889L41.918 64.5686C41.918 64.5686 42.41 66 43.5944 66C44.7845 66 45.2708 64.5686 45.2708 64.5686L52.3999 48.0283H73.1634C79.1481 48.0283 84 43.2494 84 37.3547V2.67367C84 -3.22108 79.1481 -8 73.1634 -8ZM28.4437 22.6572C28.4094 28.9972 21.7552 29.1775 21.7552 29.1775C19.1805 29.1775 17.7273 27.4981 17.7273 27.4981V28.6421H12.8811V8.95164C12.8811 8.95164 12.8582 8.94601 12.8811 8.94037V8.95164C13.1844 8.99673 17.7273 8.94037 17.7273 8.94037V16.4694C18.8659 14.5533 22.1615 14.5872 22.1615 14.5872C29.3363 15.2465 28.438 22.6572 28.438 22.6572H28.4437ZM36.9746 15.1958V28.676H32.2314V15.3311C32.2314 13.5164 29.9428 13.0092 29.9428 13.0092V8.30356C37.5181 8.60787 36.9746 15.1958 36.9746 15.1958ZM48.2174 29.1888C43.8233 29.1888 40.2645 25.9596 40.2645 21.981C40.2645 18.0023 43.8233 14.7731 48.2174 14.7731C52.6116 14.7731 56.1704 18.0023 56.1704 21.981C56.1704 25.9596 52.6116 29.1888 48.2174 29.1888ZM74.2047 29.1888C74.2047 29.1888 74.2734 36.0359 67.2072 36.0359H65.0559V31.6008H66.3547C66.3547 31.6008 69.3242 31.8713 69.2899 27.3629C69.2899 27.3629 68.712 29.1888 64.5467 29.1888C64.5467 29.1888 58.6421 28.7718 58.6421 23.0968V20.944C58.6421 20.944 58.7794 15.0605 65.2619 14.5928C65.2619 14.5928 67.8195 14.3223 69.3929 16.4074V14.9647H74.2047V29.1944V29.1888Z" fill="#2EB34A"/>
<path d="M66.6694 19.0843C65.0502 19.0843 63.7343 20.3805 63.7343 21.9753C63.7343 23.5702 65.0502 24.8663 66.6694 24.8663C68.2886 24.8663 69.6046 23.5702 69.6046 21.9753C69.6046 20.3805 68.2886 19.0843 66.6694 19.0843Z" fill="#2EB34A"/>
<rect x="29" y="6" width="12" height="26" fill="#2EB34A"/>
<rect x="-3" y="6" width="12" height="26" fill="#2EB34A"/>
</g>
</svg>
