<svg width="200" height="50" viewBox="0 0 200 50" fill="none" xmlns="http://www.w3.org/2000/svg">
<path d="M19.464 12.9536L11.0249 29.9541H19.464C21.8121 29.9541 23.9376 29.0008 25.4733 27.4651C27.0127 25.9256 27.9624 23.8001 27.9624 21.4557C27.9624 16.7595 24.1564 12.9536 19.4602 12.9536H19.464Z" fill="#F89E32"/>
<path d="M13.1019 22.702L17.9761 12.9535H12.6085L16.2215 0L4.87425 22.702L0 32.4468H5.3639L1.75087 45.4002L13.1019 22.702Z" fill="#F97B0A"/>
<path d="M34.3149 47.3972H40.6052V49.8595H41.2363V46.8489H34.3149V47.3972Z" fill="black"/>
<path d="M41.2361 40.5276H40.605V45.8867H41.2361V43.4141H42.6017V42.8657H41.2361V40.5276Z" fill="black"/>
<path d="M39.0741 40.6519H38.4947V42.421H36.7152V40.6519H36.1462V42.421H34.3357V40.6519H33.7563V45.473H39.0741V40.6519ZM36.1462 44.9454H34.3357V42.9486H36.1462V44.9454ZM38.4947 44.9454H36.7152V42.9486H38.4947V44.9454Z" fill="black"/>
<path d="M46.8538 45.4418C47.3194 45.1418 47.8056 44.5314 47.9919 43.9727C48.2402 44.5934 48.7471 45.1521 49.2954 45.4315V44.8624C48.8299 44.49 48.3333 43.8899 48.3333 42.6174V40.6414H47.7229V42.6277C47.7229 43.6727 47.2677 44.3555 46.8538 44.759C46.4504 44.3451 46.0262 43.6623 46.0262 42.6174V40.6414H45.4158V42.6174C45.4158 43.8589 44.9399 44.49 44.4536 44.8624V45.4315C45.0123 45.1418 45.5296 44.5521 45.7468 43.9727C45.9124 44.5107 46.3883 45.1107 46.8538 45.4418Z" fill="black"/>
<path d="M45.5088 49.8076H52.4922V46.5073H45.5088V49.8076ZM46.1399 47.0453H51.8611V49.2697H46.1399V47.0453Z" fill="black"/>
<path d="M51.8924 42.6899H50.5267V40.5793H49.937V45.6074H50.5267V43.2485H51.8924V45.6591H52.4924V40.5276H51.8924V42.6899Z" fill="black"/>
<path d="M63.2107 40.5276H62.5796V49.6836H63.2107V40.5276Z" fill="black"/>
<path d="M58.193 40.5276C57.5826 40.5276 57.0757 40.7345 56.7239 41.1276C56.0825 41.8208 55.8652 43.1037 55.8652 44.8625C55.8652 46.6213 56.0825 47.9145 56.7239 48.6077C57.0757 49.0111 57.5826 49.1767 58.193 49.1767C58.8034 49.1767 59.3 49.0111 59.6621 48.6077C60.3139 47.9145 60.5312 46.6213 60.5312 44.8625C60.5312 43.1037 60.3139 41.8208 59.6621 41.1276C59.3 40.7345 58.8034 40.5276 58.193 40.5276ZM59.2069 48.2352C58.9586 48.5042 58.6172 48.649 58.193 48.649C57.7689 48.649 57.4378 48.5042 57.1791 48.2352C56.6722 47.6558 56.4963 46.4868 56.4963 44.8625C56.4963 43.2382 56.6722 42.0898 57.1791 41.5104C57.4378 41.2311 57.7792 41.0759 58.193 41.0759C58.6069 41.0759 58.9586 41.2311 59.2069 41.5104C59.7242 42.0898 59.9001 43.2485 59.9001 44.8625C59.9001 46.4764 59.7242 47.6558 59.2069 48.2352Z" fill="black"/>
<path d="M71.9324 48.0387H77.9846V45.7419H71.3013V46.2592H77.3536V47.5214H71.3013V49.8078H78.1088V49.2905H71.9324V48.0387Z" fill="black"/>
<path d="M77.9846 40.5276H77.3535V44.9349H77.9846V42.9382H79.433V42.3795H77.9846V40.5276Z" fill="black"/>
<path d="M72.9976 44.7383C73.639 44.7383 74.2081 44.5521 74.6322 44.2107C75.0771 43.8486 75.3564 43.2899 75.3564 42.5967C75.3564 41.9035 75.0771 41.3552 74.6322 40.9931C74.2081 40.6517 73.639 40.4758 72.9976 40.4758C72.3562 40.4758 71.7871 40.6517 71.363 40.9931C70.9181 41.3552 70.6284 41.9035 70.6284 42.5967C70.6284 43.2899 70.9181 43.8486 71.363 44.2107C71.7871 44.5521 72.3458 44.7383 72.9976 44.7383ZM71.7458 41.4276C72.0561 41.1483 72.501 41.0035 72.9976 41.0035C73.4942 41.0035 73.9287 41.1483 74.2391 41.4276C74.5495 41.6863 74.7357 42.0898 74.7357 42.5967C74.7357 43.1037 74.5495 43.5071 74.2391 43.7761C73.9287 44.0451 73.4839 44.19 72.9976 44.19C72.5114 44.19 72.0561 44.0451 71.7458 43.7761C71.4354 43.5071 71.2492 43.1037 71.2492 42.5967C71.2492 42.0898 71.4354 41.6863 71.7458 41.4276Z" fill="black"/>
<path d="M88.5372 42.7623H86.5508V43.321H88.5372V45.8557H86.5508V46.404H88.5372V49.694H89.1683V40.5276H88.5372V42.7623Z" fill="black"/>
<path d="M82.5574 48.5044V45.1214H85.837V40.6934H81.9263V41.2624H85.2162V44.5523H81.9263V49.0528H85.0404C85.8784 49.0528 86.7267 48.9596 87.244 48.67V48.1423C86.7164 48.4217 85.8784 48.5044 85.0507 48.5044H82.5574Z" fill="black"/>
<path d="M92.541 47.2423H96.2965V49.8598H96.9276V47.2423H100.704V46.6836H92.541V47.2423Z" fill="black"/>
<path d="M96.6171 42.8969C97.2068 44.0763 98.5724 44.8833 100.279 45.1937V44.6246C98.6345 44.335 96.9275 43.29 96.9275 41.6347V41.2002H100.197V40.6519H93.0478V41.2002H96.2964V41.6347C96.2964 43.29 94.5479 44.3453 92.9443 44.6246V45.1937C94.5893 44.904 96.0274 44.0763 96.6171 42.8969Z" fill="black"/>
<path d="M111.722 45.2971H103.456V45.8558H111.722V45.2971Z" fill="black"/>
<path d="M104.728 47.0042H104.097V49.7458H111.267V49.1975H104.728V47.0042Z" fill="black"/>
<path d="M111.143 43.0625H104.728V40.5898H104.097V43.6005H111.143V43.0625Z" fill="black"/>
<path d="M121.075 43.8797C121.468 44.7902 122.409 45.504 123.527 45.7627V45.1937C122.451 44.9247 121.375 44.0453 121.375 42.5244V41.2002H123.371V40.6519H118.757V41.2002H120.744V42.5244C120.744 44.0867 119.73 45.0695 118.612 45.3178V45.8972C119.761 45.6385 120.702 44.8109 121.075 43.8797Z" fill="black"/>
<path d="M126.134 40.5276H125.502V46.9006H126.134V40.5276Z" fill="black"/>
<path d="M119.989 46.8384H119.357V49.7455H126.32V49.1972H119.989V46.8384Z" fill="black"/>
<path d="M136.935 40.5276H136.304V49.694H136.935V45.0073H138.414V44.4693H136.935V40.5276Z" fill="black"/>
<path d="M133.903 45.6176V41.262H135.114V40.7034H129.548V41.262H130.748V45.6176C130.748 47.2419 130.127 48.0385 129.444 48.4834V49.0524C130.241 48.68 130.851 47.9351 131.058 47.1902C131.265 47.873 131.689 48.68 132.32 49.0628C132.952 48.68 133.396 47.9144 133.593 47.2316C133.821 47.9454 134.41 48.68 135.197 49.0524V48.4834C134.493 48.0178 133.903 47.2316 133.903 45.6176ZM133.283 45.6073C133.283 47.1281 132.765 48.0282 132.331 48.4213C131.896 48.0178 131.369 47.1178 131.369 45.6073V41.262H133.283V45.6073Z" fill="black"/>
<path d="M145.781 48.0387H151.833V45.7419H145.149V46.2592H151.202V47.5214H145.149V49.8078H151.957V49.2905H145.781V48.0387Z" fill="black"/>
<path d="M151.833 40.5276H151.202V44.9349H151.833V42.9382H153.281V42.3795H151.833V40.5276Z" fill="black"/>
<path d="M148.926 40.6519H144.591V44.5005H148.926V40.6519ZM148.295 43.9729H145.212V41.1795H148.295V43.9729Z" fill="black"/>
<path d="M162.799 40.5276H162.168V49.694H162.799V45.0073H164.341V44.4693H162.799V40.5276Z" fill="black"/>
<path d="M157.937 43.3521C157.368 43.3521 156.882 43.5176 156.509 43.8486C155.982 44.3246 155.682 45.1315 155.682 46.2799C155.682 47.4283 155.982 48.2456 156.509 48.7215C156.882 49.0526 157.368 49.2181 157.937 49.2181C158.506 49.2181 158.992 49.0526 159.365 48.7215C159.892 48.2456 160.192 47.4386 160.192 46.2799C160.192 45.1212 159.892 44.3246 159.365 43.8486C158.992 43.5176 158.506 43.3521 157.937 43.3521ZM158.982 48.2766C158.713 48.5456 158.361 48.6698 157.937 48.6698C157.513 48.6698 157.161 48.5456 156.892 48.2766C156.509 47.8835 156.313 47.211 156.313 46.2799C156.313 45.3488 156.509 44.6763 156.892 44.2935C157.161 44.0245 157.513 43.89 157.937 43.89C158.361 43.89 158.713 44.0245 158.982 44.2935C159.365 44.6763 159.561 45.3488 159.561 46.2799C159.561 47.211 159.365 47.8835 158.982 48.2766Z" fill="black"/>
<path d="M158.226 40.238H157.595V41.7071H155.278V42.2762H160.565V41.7071H158.226V40.238Z" fill="black"/>
<path d="M174.024 43.0625H167.61V40.5898H166.979V43.6005H174.024V43.0625Z" fill="black"/>
<path d="M174.604 45.2971H166.337V45.8558H174.604V45.2971Z" fill="black"/>
<path d="M167.61 47.0042H166.979V49.7458H174.149V49.1975H167.61V47.0042Z" fill="black"/>
<path d="M183.873 45.1728C184.546 45.1728 185.115 44.9762 185.518 44.6141C185.674 44.4693 185.818 44.3038 185.922 44.1072H188.384V45.7729H189.015V40.5276H188.384V41.5208H185.912C185.808 41.3345 185.674 41.169 185.518 41.0345C185.115 40.6724 184.546 40.4758 183.873 40.4758C183.201 40.4758 182.632 40.6724 182.218 41.0345C181.773 41.438 181.515 42.0587 181.515 42.814C181.515 43.5692 181.773 44.2003 182.218 44.6141C182.632 44.9762 183.201 45.1728 183.873 45.1728ZM186.139 42.0691H188.384V43.5589H186.139C186.201 43.3313 186.232 43.083 186.232 42.814C186.232 42.545 186.201 42.2967 186.139 42.0691ZM182.632 41.4794C182.932 41.1793 183.367 41.0242 183.873 41.0242C184.38 41.0242 184.805 41.1793 185.105 41.4794C185.425 41.7897 185.612 42.245 185.612 42.814C185.612 43.383 185.425 43.8486 185.105 44.1693C184.805 44.459 184.38 44.6245 183.873 44.6245C183.367 44.6245 182.932 44.459 182.632 44.1693C182.311 43.8486 182.135 43.3933 182.135 42.814C182.135 42.2346 182.311 41.7897 182.632 41.4794Z" fill="black"/>
<path d="M188.498 46.8074C187.846 46.3832 186.822 46.197 185.653 46.197C184.484 46.197 183.459 46.3832 182.808 46.8074C182.352 47.1178 182.083 47.5213 182.083 48.0696C182.083 48.6179 182.352 49.0318 182.808 49.3318C183.459 49.756 184.484 49.9319 185.653 49.9319C186.822 49.9319 187.846 49.756 188.498 49.3318C188.953 49.0318 189.232 48.6179 189.232 48.0696C189.232 47.5213 188.953 47.1178 188.498 46.8074ZM188.115 48.8766C187.587 49.2283 186.687 49.3939 185.653 49.3939C184.618 49.3939 183.708 49.2283 183.19 48.8766C182.89 48.6697 182.715 48.4007 182.715 48.0696C182.715 47.7385 182.89 47.4592 183.19 47.2523C183.708 46.9109 184.618 46.735 185.653 46.735C186.687 46.735 187.587 46.9109 188.115 47.2523C188.425 47.4592 188.601 47.7282 188.601 48.0696C188.601 48.411 188.425 48.6697 188.115 48.8766Z" fill="black"/>
<path d="M199.31 40.5276V44.3762H197.251C197.22 42.8657 196.982 41.7587 196.392 41.1276C196.03 40.7345 195.533 40.5276 194.923 40.5276C194.313 40.5276 193.806 40.7345 193.454 41.1276C192.812 41.8208 192.595 43.1037 192.595 44.8625C192.595 46.6213 192.812 47.9145 193.454 48.6077C193.806 49.0111 194.313 49.1767 194.923 49.1767C195.533 49.1767 196.03 49.0111 196.392 48.6077C197.034 47.9248 197.251 46.6523 197.261 44.9349H199.31V49.694H199.941V40.5276H199.31ZM195.937 48.2352C195.689 48.5042 195.347 48.649 194.923 48.649C194.499 48.649 194.168 48.5042 193.909 48.2352C193.402 47.6558 193.226 46.4868 193.226 44.8625C193.226 43.2382 193.402 42.0898 193.909 41.5104C194.168 41.2311 194.509 41.0759 194.923 41.0759C195.337 41.0759 195.689 41.2311 195.937 41.5104C196.454 42.0898 196.63 43.2485 196.63 44.8625C196.63 46.4764 196.454 47.6558 195.937 48.2352Z" fill="black"/>
<path d="M45.6712 14.3335C44.4878 13.7993 43.0671 13.5322 41.4127 13.5322H33.7192V32.228H37.1913V26.8344H41.4127C43.0671 26.8344 44.4878 26.5673 45.6712 26.0332C46.8545 25.499 47.767 24.7348 48.4088 23.737C49.0505 22.7391 49.3695 21.5558 49.3695 20.1833C49.3695 18.8108 49.0505 17.6275 48.4088 16.6296C47.767 15.6318 46.8545 14.8676 45.6712 14.3335ZM44.7104 22.9209C43.9351 23.5701 42.7815 23.8965 41.2532 23.8965H37.195V16.4701H41.2532C42.7852 16.4701 43.9388 16.7891 44.7104 17.4309C45.4857 18.0726 45.8715 18.9889 45.8715 20.1833C45.8715 21.3778 45.4857 22.2717 44.7104 22.9209Z" fill="black"/>
<path d="M67.5308 16.6333C66.8891 15.6355 65.9766 14.8713 64.7932 14.3371C63.6099 13.803 62.1892 13.5359 60.5348 13.5359H52.8413V32.2316H56.3134V26.8381H60.5348C62.1892 26.8381 63.6099 26.571 64.7932 26.0368C65.9766 25.5027 66.8891 24.7385 67.5308 23.7407C68.1726 22.7428 68.4916 21.5595 68.4916 20.187C68.4916 18.8145 68.1726 17.6311 67.5308 16.6333ZM63.8325 22.9246C63.0572 23.5737 61.9036 23.9002 60.3752 23.9002H56.3171V16.4738H60.3752C61.9073 16.4738 63.0609 16.7928 63.8325 17.4345C64.6078 18.0763 64.9935 18.9925 64.9935 20.187C64.9935 21.3814 64.6078 22.2754 63.8325 22.9246Z" fill="black"/>
<path d="M76.8013 13.5322L68.3882 32.228H71.9678L73.8189 27.9027H83.1704L85.0289 32.228H88.6605L80.2214 13.5322H76.8013ZM74.9836 25.1763L78.4854 16.9932L81.9982 25.1763H74.9836Z" fill="black"/>
<path d="M107.649 13.5322H103.751L94.5067 23.1286V13.5322H91.0347V32.228H94.5067V27.439L97.4854 24.3936L104.07 32.228H108.128L99.7853 21.886L107.649 13.5322Z" fill="black"/>
<path d="M138.946 23.6294C138.252 23.2733 137.496 22.984 136.676 22.7614C135.856 22.5388 135.029 22.3311 134.191 22.1345C133.352 21.9379 132.588 21.6968 131.894 21.4149C131.201 21.1292 130.644 20.7472 130.225 20.2649C129.806 19.7827 129.598 19.1447 129.598 18.3434C129.598 17.6497 129.784 17.0228 130.158 16.459C130.533 15.8952 131.112 15.45 131.894 15.1087C132.677 14.7675 133.668 14.6006 134.858 14.6006C135.697 14.6006 136.565 14.7304 137.462 14.9863C138.36 15.246 139.202 15.6392 139.985 16.1734L140.493 15.0791C139.781 14.5635 138.92 14.1517 137.915 13.8512C136.91 13.5471 135.89 13.3987 134.858 13.3987C133.326 13.3987 132.073 13.6287 131.093 14.0924C130.114 14.556 129.394 15.1607 128.931 15.91C128.467 16.6593 128.237 17.4754 128.237 18.3657C128.237 19.345 128.445 20.1425 128.864 20.7546C129.283 21.3666 129.839 21.8526 130.533 22.2087C131.227 22.5648 131.995 22.8541 132.829 23.0767C133.668 23.2993 134.495 23.5107 135.315 23.7036C136.134 23.9002 136.891 24.1413 137.585 24.4232C138.278 24.7089 138.839 25.0909 139.269 25.5732C139.695 26.0554 139.911 26.6934 139.911 27.4947C139.911 28.1735 139.718 28.7856 139.336 29.3383C138.954 29.891 138.364 30.3324 137.574 30.6589C136.78 30.989 135.763 31.1522 134.517 31.1522C133.271 31.1522 132.091 30.9259 130.978 30.4697C129.865 30.0171 128.99 29.4607 128.348 28.8004L127.732 29.8168C128.408 30.5661 129.365 31.1745 130.604 31.6456C131.839 32.1167 133.156 32.3541 134.543 32.3541C136.094 32.3541 137.362 32.1278 138.349 31.6716C139.336 31.219 140.07 30.6106 140.552 29.8539C141.035 29.0972 141.272 28.2811 141.272 27.4094C141.272 26.4486 141.057 25.6659 140.63 25.0576C140.204 24.4529 139.644 23.9707 138.946 23.6146V23.6294Z" fill="black"/>
<path d="M155.208 23.6294C154.515 23.2733 153.758 22.984 152.938 22.7614C152.118 22.5388 151.291 22.3311 150.453 22.1345C149.614 21.9379 148.85 21.6968 148.157 21.4149C147.463 21.1292 146.907 20.7472 146.487 20.2649C146.068 19.7827 145.86 19.1447 145.86 18.3434C145.86 17.6497 146.046 17.0228 146.421 16.459C146.795 15.8952 147.374 15.45 148.157 15.1087C148.939 14.7675 149.93 14.6006 151.121 14.6006C151.959 14.6006 152.827 14.7304 153.725 14.9863C154.622 15.246 155.464 15.6392 156.247 16.1734L156.755 15.0791C156.043 14.5635 155.182 14.1517 154.177 13.8512C153.172 13.5471 152.152 13.3987 151.121 13.3987C149.589 13.3987 148.335 13.6287 147.355 14.0924C146.376 14.556 145.656 15.1607 145.193 15.91C144.729 16.6593 144.499 17.4754 144.499 18.3657C144.499 19.345 144.707 20.1425 145.126 20.7546C145.545 21.3666 146.102 21.8526 146.795 22.2087C147.489 22.5648 148.257 22.8541 149.091 23.0767C149.93 23.2993 150.757 23.5107 151.577 23.7036C152.397 23.9002 153.153 24.1413 153.847 24.4232C154.541 24.7089 155.101 25.0909 155.531 25.5732C155.958 26.0554 156.173 26.6934 156.173 27.4947C156.173 28.1735 155.98 28.7856 155.598 29.3383C155.216 29.891 154.626 30.3324 153.836 30.6589C153.042 30.989 152.026 31.1522 150.779 31.1522C149.533 31.1522 148.353 30.9259 147.24 30.4697C146.128 30.0171 145.252 29.4607 144.61 28.8004L143.995 29.8168C144.67 30.5661 145.627 31.1745 146.866 31.6456C148.101 32.1167 149.418 32.3541 150.805 32.3541C152.356 32.3541 153.624 32.1278 154.611 31.6716C155.598 31.219 156.332 30.6106 156.815 29.8539C157.297 29.0972 157.534 28.2811 157.534 27.4094C157.534 26.4486 157.319 25.6659 156.892 25.0576C156.466 24.4529 155.906 23.9707 155.208 23.6146V23.6294Z" fill="black"/>
<path d="M167.628 13.5322L159.029 32.228H160.498L162.883 26.9679H173.726L176.123 32.228H177.592L168.993 13.5322H167.632H167.628ZM163.403 25.818L168.296 15.0346L173.203 25.818H163.403Z" fill="black"/>
<path d="M200 32.228L199.97 13.5322H198.85L190.504 27.9843L182.131 13.5322H180.981V32.228H182.317V16.2809L190.144 29.7463H190.812L198.639 16.2327L198.665 32.228H200Z" fill="black"/>
<path d="M114.003 20.3612C112.575 19.7973 110.958 20.4984 110.394 21.9266C109.83 23.3547 110.531 24.9721 111.96 25.5359C113.388 26.0997 115.005 25.3986 115.569 23.9705C116.133 22.5424 115.432 20.925 114.003 20.3612Z" fill="#F97B0A"/>
<path d="M121.76 20.3612C120.332 19.7973 118.714 20.4984 118.15 21.9266C117.587 23.3547 118.288 24.9721 119.716 25.5359C121.144 26.0997 122.761 25.3986 123.325 23.9705C123.889 22.5424 123.188 20.925 121.76 20.3612Z" fill="#F89E32"/>
</svg>
