<svg width="21" height="18" viewBox="0 0 21 18" fill="none" xmlns="http://www.w3.org/2000/svg">
<path fill-rule="evenodd" clip-rule="evenodd" d="M10.036 0C13.0905 0 16.7267 0.175715 17.4539 0.351429C18.763 0.527143 19.4902 1.23 20.072 3.16286C20.2175 3.69 20.3629 7.20429 20.3629 8.43429V8.78572C20.3629 10.0157 20.2175 13.3543 20.072 14.0571C19.6357 15.8143 18.9084 16.6929 17.5994 16.8686C16.7267 17.0443 13.0905 17.22 10.1815 17.22C7.27248 17.22 3.49079 17.0443 2.76354 16.8686C1.4545 16.6929 0.727248 15.99 0.2909 14.0571C0.14545 13.53 0 10.0157 0 8.78572V8.43429C0 7.20429 0.14545 3.86571 0.2909 3.16286C0.581799 1.23 1.30905 0.527143 2.61809 0.351429C3.49079 0.175715 7.12703 0 10.036 0ZM9.5547 6.03647C8.89015 5.59343 8 6.06982 8 6.86852V11.1315C8 11.9302 8.89014 12.4066 9.5547 11.9635L12.7519 9.83205C13.3457 9.43623 13.3457 8.56377 12.7519 8.16795L9.5547 6.03647Z" fill="white"/>
</svg>
