<svg width="21" height="17" viewBox="0 0 21 17" fill="none" xmlns="http://www.w3.org/2000/svg">
<path fill-rule="evenodd" clip-rule="evenodd" d="M4 0C1.79086 0 0 1.79086 0 4V13C0 15.2091 1.79086 17 4 17H17C19.2091 17 21 15.2091 21 13V4C21 1.79086 19.2091 0 17 0H4ZM17.1339 3.0014C16.2856 2.96239 15.4958 3.7473 15.5885 4.50295C15.5202 5.3366 16.3051 5.985 17.0413 5.99962C17.8944 6.01912 18.5526 5.2781 18.5721 4.54682C18.5916 3.67904 17.8457 3.03552 17.1339 3.0014ZM10.6105 5.07638C8.24427 4.98246 6.48704 6.85785 6.49613 9.01499C6.50825 11.2236 8.2473 12.9203 10.3711 12.9445C12.6525 12.9688 14.3188 11.2055 14.3673 9.11194C14.4188 6.79725 12.6131 5.15515 10.6105 5.07638ZM10.4287 6.4761C11.8072 6.46398 12.9706 7.60315 12.9494 9.00893C12.9948 10.339 11.8072 11.6175 10.2893 11.5266C8.96231 11.4509 7.89888 10.3753 7.90191 9.00893C7.90494 7.59406 8.9926 6.48822 10.4287 6.4761Z" fill="white"/>
</svg>
