<svg width="15" height="12" viewBox="0 0 15 12" fill="none" xmlns="http://www.w3.org/2000/svg">
<path d="M5.6559 11.056C5.5039 11.056 5.3519 11 5.2319 10.88L0.375904 6.02399C0.143904 5.79199 0.143904 5.40799 0.375904 5.17599L5.2319 0.319985C5.4639 0.0879847 5.8479 0.0879847 6.0799 0.319985C6.3119 0.551985 6.3119 0.935985 6.0799 1.16798L1.6479 5.59999L6.0799 10.032C6.3119 10.264 6.3119 10.648 6.0799 10.88C5.9679 11 5.8079 11.056 5.6559 11.056Z" fill="#222222"/>
<path d="M14.3999 6.19999H0.935937C0.607937 6.19999 0.335938 5.92799 0.335938 5.59999C0.335938 5.27198 0.607937 4.99998 0.935937 4.99998H14.3999C14.7279 4.99998 14.9999 5.27198 14.9999 5.59999C14.9999 5.92799 14.7279 6.19999 14.3999 6.19999Z" fill="#222222"/>
</svg>
