<svg width="15" height="12" viewBox="0 0 15 12" fill="none" xmlns="http://www.w3.org/2000/svg">
<path d="M5.656 11.056C5.504 11.056 5.352 11 5.232 10.88L0.375996 6.024C0.143996 5.792 0.143996 5.408 0.375996 5.176L5.232 0.319996C5.464 0.0879961 5.848 0.0879961 6.08 0.319996C6.312 0.551996 6.312 0.935996 6.08 1.168L1.648 5.6L6.08 10.032C6.312 10.264 6.312 10.648 6.08 10.88C5.968 11 5.808 11.056 5.656 11.056Z" fill="#FF881B"/>
<path d="M14.4 6.2H0.935998C0.607999 6.2 0.335999 5.928 0.335999 5.6C0.335999 5.272 0.607999 5 0.935998 5H14.4C14.728 5 15 5.272 15 5.6C15 5.928 14.728 6.2 14.4 6.2Z" fill="#FF881B"/>
</svg>
