<svg width="65" height="10" viewBox="0 0 65 10" fill="none" xmlns="http://www.w3.org/2000/svg">
<path d="M5.1316 0L6.87592 2.97399L10.2632 3.70239L7.95396 6.26882L8.30309 9.69298L5.1316 8.30513L1.96011 9.69298L2.30923 6.26882L1.76132e-05 3.70239L3.38728 2.97399L5.1316 0Z" fill="#FFCB45"/>
<path d="M18.8158 0L20.5601 2.97399L23.9474 3.70239L21.6382 6.26882L21.9873 9.69298L18.8158 8.30513L15.6443 9.69298L15.9934 6.26882L13.6842 3.70239L17.0715 2.97399L18.8158 0Z" fill="#FFCB45"/>
<path d="M32.5 0L34.2443 2.97399L37.6316 3.70239L35.3224 6.26882L35.6715 9.69298L32.5 8.30513L29.3285 9.69298L29.6777 6.26882L27.3684 3.70239L30.7557 2.97399L32.5 0Z" fill="#FFCB45"/>
<path d="M46.1842 0L47.9285 2.97399L51.3158 3.70239L49.0066 6.26882L49.3557 9.69298L46.1842 8.30513L43.0127 9.69298L43.3619 6.26882L41.0526 3.70239L44.4399 2.97399L46.1842 0Z" fill="#FFCB45"/>
<path d="M59.8684 0L61.6128 2.97399L65 3.70239L62.6908 6.26882L63.0399 9.69298L59.8684 8.30513L56.697 9.69298L57.0461 6.26882L54.7369 3.70239L58.1241 2.97399L59.8684 0Z" fill="#FFCB45"/>
</svg>
