<svg width="65" height="11" viewBox="0 0 65 11" fill="none" xmlns="http://www.w3.org/2000/svg">
<path d="M5.13158 0.745605L6.8759 3.7196L10.2632 4.448L7.95395 7.01442L8.30307 10.4386L5.13158 9.05074L1.96009 10.4386L2.30921 7.01442L0 4.448L3.38726 3.7196L5.13158 0.745605Z" fill="#FFCB45"/>
<path d="M18.8158 0.745605L20.5601 3.7196L23.9474 4.448L21.6382 7.01442L21.9873 10.4386L18.8158 9.05074L15.6443 10.4386L15.9934 7.01442L13.6842 4.448L17.0715 3.7196L18.8158 0.745605Z" fill="#F2F2F2"/>
<path d="M15.6443 10.4386L18.8158 9.05074V0.745605L17.0715 3.7196L13.6842 4.448L15.9934 7.01442L15.6443 10.4386Z" fill="#FFCB45"/>
<path d="M32.5 0.745605L34.2443 3.7196L37.6316 4.448L35.3224 7.01442L35.6715 10.4386L32.5 9.05074L29.3285 10.4386L29.6776 7.01442L27.3684 4.448L30.7557 3.7196L32.5 0.745605Z" fill="#F2F2F2"/>
<path d="M46.1842 0.745605L47.9285 3.7196L51.3158 4.448L49.0066 7.01442L49.3557 10.4386L46.1842 9.05074L43.0127 10.4386L43.3618 7.01442L41.0526 4.448L44.4399 3.7196L46.1842 0.745605Z" fill="#F2F2F2"/>
<path d="M59.8684 0.745605L61.6127 3.7196L65 4.448L62.6908 7.01442L63.0399 10.4386L59.8684 9.05074L56.6969 10.4386L57.0461 7.01442L54.7368 4.448L58.1241 3.7196L59.8684 0.745605Z" fill="#F2F2F2"/>
</svg>
