<svg width="65" height="10" viewBox="0 0 65 10" fill="none" xmlns="http://www.w3.org/2000/svg">
<path d="M5.13158 0.210571L6.8759 3.18456L10.2632 3.91296L7.95395 6.47939L8.30307 9.90355L5.13158 8.5157L1.96009 9.90355L2.30921 6.47939L0 3.91296L3.38726 3.18456L5.13158 0.210571Z" fill="#FFCB45"/>
<path d="M18.8158 0.210571L20.5601 3.18456L23.9474 3.91296L21.6382 6.47939L21.9873 9.90355L18.8158 8.5157L15.6443 9.90355L15.9934 6.47939L13.6842 3.91296L17.0715 3.18456L18.8158 0.210571Z" fill="#FFCB45"/>
<path d="M32.5 0.210571L34.2443 3.18456L37.6316 3.91296L35.3224 6.47939L35.6715 9.90356L32.5 8.5157L29.3285 9.90356L29.6776 6.47939L27.3684 3.91296L30.7557 3.18456L32.5 0.210571Z" fill="#F2F2F2"/>
<path d="M46.1842 0.210571L47.9285 3.18456L51.3158 3.91296L49.0066 6.47939L49.3557 9.90356L46.1842 8.5157L43.0127 9.90356L43.3618 6.47939L41.0526 3.91296L44.4399 3.18456L46.1842 0.210571Z" fill="#F2F2F2"/>
<path d="M59.8684 0.210571L61.6127 3.18456L65 3.91296L62.6908 6.47939L63.0399 9.90356L59.8684 8.5157L56.6969 9.90356L57.0461 6.47939L54.7368 3.91296L58.1241 3.18456L59.8684 0.210571Z" fill="#F2F2F2"/>
</svg>
