<svg width="65" height="11" viewBox="0 0 65 11" fill="none" xmlns="http://www.w3.org/2000/svg">
<path d="M5.13158 0.675415L6.8759 3.64941L10.2632 4.37781L7.95395 6.94423L8.30307 10.3684L5.13158 8.98055L1.96009 10.3684L2.30921 6.94423L0 4.37781L3.38726 3.64941L5.13158 0.675415Z" fill="#FFCB45"/>
<path d="M18.8158 0.675415L20.5601 3.64941L23.9474 4.37781L21.6382 6.94423L21.9873 10.3684L18.8158 8.98055L15.6443 10.3684L15.9934 6.94423L13.6842 4.37781L17.0715 3.64941L18.8158 0.675415Z" fill="#FFCB45"/>
<path d="M32.5 0.675415L34.2443 3.64941L37.6316 4.37781L35.3224 6.94423L35.6715 10.3684L32.5 8.98055L29.3285 10.3684L29.6776 6.94423L27.3684 4.37781L30.7557 3.64941L32.5 0.675415Z" fill="#F2F2F2"/>
<path d="M29.3285 10.3684L32.5 8.98055V0.675415L30.7557 3.64941L27.3684 4.3778L29.6776 6.94423L29.3285 10.3684Z" fill="#FFCB45"/>
<path d="M46.1842 0.675415L47.9285 3.64941L51.3158 4.37781L49.0066 6.94423L49.3557 10.3684L46.1842 8.98055L43.0127 10.3684L43.3618 6.94423L41.0526 4.37781L44.4399 3.64941L46.1842 0.675415Z" fill="#F2F2F2"/>
<path d="M59.8684 0.675415L61.6127 3.64941L65 4.37781L62.6908 6.94423L63.0399 10.3684L59.8684 8.98055L56.6969 10.3684L57.0461 6.94423L54.7368 4.37781L58.1241 3.64941L59.8684 0.675415Z" fill="#F2F2F2"/>
</svg>
