<svg width="65" height="11" viewBox="0 0 65 11" fill="none" xmlns="http://www.w3.org/2000/svg">
<path d="M5.13158 0.605225L6.8759 3.57922L10.2632 4.30761L7.95395 6.87404L8.30307 10.2982L5.13158 8.91036L1.96009 10.2982L2.30921 6.87404L0 4.30761L3.38726 3.57922L5.13158 0.605225Z" fill="#FFCB45"/>
<path d="M18.8158 0.605225L20.5601 3.57922L23.9474 4.30761L21.6382 6.87404L21.9873 10.2982L18.8158 8.91036L15.6443 10.2982L15.9934 6.87404L13.6842 4.30761L17.0715 3.57922L18.8158 0.605225Z" fill="#FFCB45"/>
<path d="M32.5 0.605225L34.2443 3.57922L37.6316 4.30761L35.3224 6.87404L35.6715 10.2982L32.5 8.91036L29.3285 10.2982L29.6776 6.87404L27.3684 4.30761L30.7557 3.57922L32.5 0.605225Z" fill="#FFCB45"/>
<path d="M46.1842 0.605225L47.9285 3.57922L51.3158 4.30761L49.0066 6.87404L49.3557 10.2982L46.1842 8.91036L43.0127 10.2982L43.3618 6.87404L41.0526 4.30761L44.4399 3.57922L46.1842 0.605225Z" fill="#F2F2F2"/>
<path d="M43.0127 10.2982L46.1842 8.91036V0.605225L44.4399 3.57922L41.0526 4.30761L43.3618 6.87404L43.0127 10.2982Z" fill="#FFCB45"/>
<path d="M59.8684 0.605225L61.6127 3.57922L65 4.30762L62.6908 6.87404L63.0399 10.2982L59.8684 8.91036L56.6969 10.2982L57.0461 6.87404L54.7368 4.30762L58.1241 3.57922L59.8684 0.605225Z" fill="#F2F2F2"/>
</svg>
