<svg width="65" height="10" viewBox="0 0 65 10" fill="none" xmlns="http://www.w3.org/2000/svg">
<path d="M5.13158 0.0701904L6.8759 3.04418L10.2632 3.77258L7.95395 6.33901L8.30307 9.76317L5.13158 8.37532L1.96009 9.76317L2.30921 6.33901L0 3.77258L3.38726 3.04418L5.13158 0.0701904Z" fill="#FFCB45"/>
<path d="M18.8158 0.0701904L20.5601 3.04418L23.9474 3.77258L21.6382 6.33901L21.9873 9.76317L18.8158 8.37532L15.6443 9.76317L15.9934 6.33901L13.6842 3.77258L17.0715 3.04418L18.8158 0.0701904Z" fill="#FFCB45"/>
<path d="M32.5 0.0701904L34.2443 3.04418L37.6316 3.77258L35.3224 6.33901L35.6715 9.76317L32.5 8.37532L29.3285 9.76317L29.6776 6.33901L27.3684 3.77258L30.7557 3.04418L32.5 0.0701904Z" fill="#FFCB45"/>
<path d="M46.1842 0.0701904L47.9285 3.04418L51.3158 3.77258L49.0066 6.33901L49.3557 9.76317L46.1842 8.37532L43.0127 9.76317L43.3618 6.33901L41.0526 3.77258L44.4399 3.04418L46.1842 0.0701904Z" fill="#FFCB45"/>
<path d="M59.8684 0.0701904L61.6127 3.04418L65 3.77258L62.6908 6.33901L63.0399 9.76318L59.8684 8.37532L56.6969 9.76318L57.0461 6.33901L54.7368 3.77258L58.1241 3.04418L59.8684 0.0701904Z" fill="#F2F2F2"/>
</svg>
