<svg width="65" height="11" viewBox="0 0 65 11" fill="none" xmlns="http://www.w3.org/2000/svg">
<path d="M5.13158 0.815796L6.8759 3.78979L10.2632 4.51819L7.95395 7.08461L8.30307 10.5088L5.13158 9.12093L1.96009 10.5088L2.30921 7.08461L0 4.51819L3.38726 3.78979L5.13158 0.815796Z" fill="#F2F2F2"/>
<path d="M1.96009 10.5088L5.13158 9.12093V0.815796L3.38726 3.78979L0 4.51819L2.30921 7.08461L1.96009 10.5088Z" fill="#FFCB45"/>
<path d="M18.8158 0.815796L20.5601 3.78979L23.9474 4.51819L21.6382 7.08461L21.9873 10.5088L18.8158 9.12093L15.6443 10.5088L15.9934 7.08461L13.6842 4.51819L17.0715 3.78979L18.8158 0.815796Z" fill="#F2F2F2"/>
<path d="M32.5 0.815796L34.2443 3.78979L37.6316 4.51819L35.3224 7.08461L35.6715 10.5088L32.5 9.12093L29.3285 10.5088L29.6776 7.08461L27.3684 4.51819L30.7557 3.78979L32.5 0.815796Z" fill="#F2F2F2"/>
<path d="M46.1842 0.815796L47.9285 3.78979L51.3158 4.51819L49.0066 7.08461L49.3557 10.5088L46.1842 9.12093L43.0127 10.5088L43.3618 7.08461L41.0526 4.51819L44.4399 3.78979L46.1842 0.815796Z" fill="#F2F2F2"/>
<path d="M59.8684 0.815796L61.6127 3.78979L65 4.51819L62.6908 7.08461L63.0399 10.5088L59.8684 9.12093L56.6969 10.5088L57.0461 7.08461L54.7368 4.51819L58.1241 3.78979L59.8684 0.815796Z" fill="#F2F2F2"/>
</svg>
