<svg width="65" height="10" viewBox="0 0 65 10" fill="none" xmlns="http://www.w3.org/2000/svg">
<path d="M5.13158 0.140381L6.8759 3.11437L10.2632 3.84277L7.95395 6.4092L8.30307 9.83336L5.13158 8.44551L1.96009 9.83336L2.30921 6.4092L0 3.84277L3.38726 3.11437L5.13158 0.140381Z" fill="#FFCB45"/>
<path d="M18.8158 0.140381L20.5601 3.11437L23.9474 3.84277L21.6382 6.4092L21.9873 9.83336L18.8158 8.44551L15.6443 9.83336L15.9934 6.4092L13.6842 3.84277L17.0715 3.11437L18.8158 0.140381Z" fill="#FFCB45"/>
<path d="M32.5 0.140381L34.2443 3.11437L37.6316 3.84277L35.3224 6.4092L35.6715 9.83336L32.5 8.44551L29.3285 9.83336L29.6776 6.4092L27.3684 3.84277L30.7557 3.11437L32.5 0.140381Z" fill="#FFCB45"/>
<path d="M46.1842 0.140381L47.9285 3.11437L51.3158 3.84277L49.0066 6.4092L49.3557 9.83337L46.1842 8.44551L43.0127 9.83337L43.3618 6.4092L41.0526 3.84277L44.4399 3.11437L46.1842 0.140381Z" fill="#F2F2F2"/>
<path d="M59.8684 0.140381L61.6127 3.11437L65 3.84277L62.6908 6.4092L63.0399 9.83337L59.8684 8.44551L56.6969 9.83337L57.0461 6.4092L54.7368 3.84277L58.1241 3.11437L59.8684 0.140381Z" fill="#F2F2F2"/>
</svg>
