<svg width="65" height="10" viewBox="0 0 65 10" fill="none" xmlns="http://www.w3.org/2000/svg">
<path d="M5.13158 0.280762L6.8759 3.25475L10.2632 3.98315L7.95395 6.54958L8.30307 9.97375L5.13158 8.58589L1.96009 9.97375L2.30921 6.54958L0 3.98315L3.38726 3.25475L5.13158 0.280762Z" fill="#FFCB45"/>
<path d="M18.8158 0.280762L20.5601 3.25475L23.9474 3.98315L21.6382 6.54958L21.9873 9.97375L18.8158 8.58589L15.6443 9.97375L15.9934 6.54958L13.6842 3.98315L17.0715 3.25475L18.8158 0.280762Z" fill="#F2F2F2"/>
<path d="M32.5 0.280762L34.2443 3.25475L37.6316 3.98315L35.3224 6.54958L35.6715 9.97375L32.5 8.58589L29.3285 9.97375L29.6776 6.54958L27.3684 3.98315L30.7557 3.25475L32.5 0.280762Z" fill="#F2F2F2"/>
<path d="M46.1842 0.280762L47.9285 3.25475L51.3158 3.98315L49.0066 6.54958L49.3557 9.97375L46.1842 8.58589L43.0127 9.97375L43.3618 6.54958L41.0526 3.98315L44.4399 3.25475L46.1842 0.280762Z" fill="#F2F2F2"/>
<path d="M59.8684 0.280762L61.6127 3.25475L65 3.98315L62.6908 6.54958L63.0399 9.97375L59.8684 8.58589L56.6969 9.97375L57.0461 6.54958L54.7368 3.98315L58.1241 3.25475L59.8684 0.280762Z" fill="#F2F2F2"/>
</svg>
