<svg width="65" height="11" viewBox="0 0 65 11" fill="none" xmlns="http://www.w3.org/2000/svg">
<path d="M5.13158 0.535034L6.8759 3.50902L10.2632 4.23742L7.95395 6.80385L8.30307 10.228L5.13158 8.84017L1.96009 10.228L2.30921 6.80385L0 4.23742L3.38726 3.50902L5.13158 0.535034Z" fill="#FFCB45"/>
<path d="M18.8158 0.535034L20.5601 3.50902L23.9474 4.23742L21.6382 6.80385L21.9873 10.228L18.8158 8.84017L15.6443 10.228L15.9934 6.80385L13.6842 4.23742L17.0715 3.50902L18.8158 0.535034Z" fill="#FFCB45"/>
<path d="M32.5 0.535034L34.2443 3.50902L37.6316 4.23742L35.3224 6.80385L35.6715 10.228L32.5 8.84017L29.3285 10.228L29.6776 6.80385L27.3684 4.23742L30.7557 3.50902L32.5 0.535034Z" fill="#FFCB45"/>
<path d="M46.1842 0.535034L47.9285 3.50902L51.3158 4.23742L49.0066 6.80385L49.3557 10.228L46.1842 8.84017L43.0127 10.228L43.3618 6.80385L41.0526 4.23742L44.4399 3.50902L46.1842 0.535034Z" fill="#FFCB45"/>
<path d="M59.8684 0.535034L61.6127 3.50902L65 4.23742L62.6908 6.80385L63.0399 10.228L59.8684 8.84017L56.6969 10.228L57.0461 6.80385L54.7368 4.23742L58.1241 3.50902L59.8684 0.535034Z" fill="#F2F2F2"/>
<path d="M56.6969 10.228L59.8684 8.84017V0.535034L58.1241 3.50902L54.7368 4.23742L57.0461 6.80385L56.6969 10.228Z" fill="#FFCB45"/>
</svg>
