<svg width="273" height="69" viewBox="0 0 273 69" fill="none" xmlns="http://www.w3.org/2000/svg">
<path d="M26.5678 17.6815L15.0485 40.8872H26.5678C29.773 40.8872 32.6743 39.5859 34.7706 37.4897C36.8719 35.3883 38.1681 32.487 38.1681 29.2869C38.1681 22.8766 32.973 17.6815 26.5627 17.6815H26.5678Z" fill="#F89E32"/>
<path d="M17.884 30.9882L24.5374 17.6815H17.2106L22.1424 0L6.65335 30.9882L0 44.2898H7.32172L2.38994 61.9713L17.884 30.9882Z" fill="#F97B0A"/>
<path d="M46.8398 64.6972H55.4259V68.0583H56.2874V63.9488H46.8398V64.6972Z" fill="black"/>
<path d="M56.2874 55.3202H55.426V62.6354H56.2874V59.2602H58.1515V58.5118H56.2874V55.3202Z" fill="black"/>
<path d="M53.3359 55.4897H52.545V57.9046H50.116V55.4897H49.3393V57.9046H46.868V55.4897H46.0771V62.0706H53.3359V55.4897ZM49.3393 61.3503H46.868V58.6248H49.3393V61.3503ZM52.545 61.3503H50.116V58.6248H52.545V61.3503Z" fill="black"/>
<path d="M63.9555 62.0282C64.591 61.6186 65.2548 60.7854 65.509 60.0228C65.8479 60.8702 66.5399 61.6327 67.2883 62.014V61.2373C66.6528 60.7289 65.975 59.9099 65.975 58.1729V55.4756H65.1418V58.187C65.1418 59.6133 64.5204 60.5454 63.9555 61.0961C63.4048 60.5312 62.8258 59.5992 62.8258 58.1729V55.4756H61.9926V58.1729C61.9926 59.8675 61.343 60.7289 60.6792 61.2373V62.014C61.4418 61.6186 62.1479 60.8137 62.4445 60.0228C62.6704 60.7572 63.32 61.5763 63.9555 62.0282Z" fill="black"/>
<path d="M62.1196 67.9876H71.6519V63.4827H62.1196V67.9876ZM62.981 64.2171H70.7905V67.2533H62.981V64.2171Z" fill="black"/>
<path d="M70.833 58.2717H68.9689V55.3908H68.164V62.2541H68.9689V59.0343H70.833V62.3247H71.6521V55.3202H70.833V58.2717Z" fill="black"/>
<path d="M86.2825 55.3202H85.421V67.8182H86.2825V55.3202Z" fill="black"/>
<path d="M79.4332 55.3202C78.6 55.3202 77.908 55.6026 77.4278 56.1393C76.5523 57.0855 76.2557 58.8366 76.2557 61.2373C76.2557 63.6381 76.5523 65.4033 77.4278 66.3495C77.908 66.9003 78.6 67.1262 79.4332 67.1262C80.2664 67.1262 80.9442 66.9003 81.4385 66.3495C82.3282 65.4033 82.6247 63.6381 82.6247 61.2373C82.6247 58.8366 82.3282 57.0855 81.4385 56.1393C80.9442 55.6026 80.2664 55.3202 79.4332 55.3202ZM80.8171 65.8411C80.4782 66.2083 80.0122 66.406 79.4332 66.406C78.8542 66.406 78.4022 66.2083 78.0492 65.8411C77.3572 65.0503 77.1172 63.4545 77.1172 61.2373C77.1172 59.0202 77.3572 57.4526 78.0492 56.6618C78.4022 56.2805 78.8683 56.0687 79.4332 56.0687C79.998 56.0687 80.4782 56.2805 80.8171 56.6618C81.5232 57.4526 81.7633 59.0343 81.7633 61.2373C81.7633 63.4404 81.5232 65.0503 80.8171 65.8411Z" fill="black"/>
<path d="M98.1873 65.5728H106.449V62.4377H97.3259V63.1438H105.587V64.8667H97.3259V67.9877H106.618V67.2816H98.1873V65.5728Z" fill="black"/>
<path d="M106.449 55.3202H105.587V61.3362H106.449V58.6106H108.426V57.848H106.449V55.3202Z" fill="black"/>
<path d="M99.6419 61.0679C100.517 61.0679 101.294 60.8137 101.873 60.3476C102.48 59.8534 102.862 59.0908 102.862 58.1446C102.862 57.1984 102.48 56.45 101.873 55.9557C101.294 55.4897 100.517 55.2496 99.6419 55.2496C98.7663 55.2496 97.9896 55.4897 97.4106 55.9557C96.8033 56.45 96.4079 57.1984 96.4079 58.1446C96.4079 59.0908 96.8033 59.8534 97.4106 60.3476C97.9896 60.8137 98.7522 61.0679 99.6419 61.0679ZM97.9331 56.5488C98.3568 56.1675 98.964 55.9698 99.6419 55.9698C100.32 55.9698 100.913 56.1675 101.337 56.5488C101.76 56.9019 102.014 57.4526 102.014 58.1446C102.014 58.8366 101.76 59.3873 101.337 59.7545C100.913 60.1217 100.306 60.3194 99.6419 60.3194C98.9781 60.3194 98.3568 60.1217 97.9331 59.7545C97.5094 59.3873 97.2552 58.8366 97.2552 58.1446C97.2552 57.4526 97.5094 56.9019 97.9331 56.5488Z" fill="black"/>
<path d="M120.853 58.3706H118.142V59.1331H120.853V62.593H118.142V63.3415H120.853V67.8323H121.714V55.3202H120.853V58.3706Z" fill="black"/>
<path d="M112.691 66.2083V61.5904H117.167V55.5462H111.829V56.3229H116.32V60.8137H111.829V66.9567H116.08C117.224 66.9567 118.382 66.8296 119.088 66.4342V65.714C118.368 66.0953 117.224 66.2083 116.094 66.2083H112.691Z" fill="black"/>
<path d="M126.318 64.4854H131.444V68.0583H132.306V64.4854H137.46V63.7228H126.318V64.4854Z" fill="black"/>
<path d="M131.882 58.5542C132.687 60.1641 134.551 61.2656 136.882 61.6893V60.9126C134.636 60.5171 132.306 59.0908 132.306 56.8313V56.2382H136.769V55.4897H127.01V56.2382H131.445V56.8313C131.445 59.0908 129.058 60.5313 126.869 60.9126V61.6893C129.115 61.2938 131.077 60.1641 131.882 58.5542Z" fill="black"/>
<path d="M152.501 61.8304H141.217V62.593H152.501V61.8304Z" fill="black"/>
<path d="M142.954 64.1606H142.093V67.9029H151.879V67.1545H142.954V64.1606Z" fill="black"/>
<path d="M151.71 58.7801H142.954V55.4049H142.093V59.5144H151.71V58.7801Z" fill="black"/>
<path d="M165.267 59.8958C165.803 61.1385 167.089 62.1129 168.614 62.466V61.6893C167.145 61.3221 165.676 60.1217 165.676 58.0458V56.2382H168.402V55.4897H162.103V56.2382H164.815V58.0458C164.815 60.1782 163.431 61.5198 161.906 61.8587V62.6496C163.473 62.2965 164.758 61.1667 165.267 59.8958Z" fill="black"/>
<path d="M172.173 55.3202H171.311V64.0194H172.173V55.3202Z" fill="black"/>
<path d="M163.784 63.9346H162.923V67.9029H172.427V67.1545H163.784V63.9346Z" fill="black"/>
<path d="M186.916 55.3202H186.054V67.8323H186.916V61.435H188.935V60.7007H186.916V55.3202Z" fill="black"/>
<path d="M182.778 62.2682V56.3229H184.43V55.5603H176.833V56.3229H178.471V62.2682C178.471 64.4854 177.624 65.5728 176.692 66.18V66.9567C177.779 66.4483 178.612 65.4316 178.895 64.4148C179.177 65.3468 179.756 66.4483 180.618 66.9708C181.479 66.4483 182.086 65.4033 182.355 64.4713C182.665 65.4457 183.47 66.4483 184.543 66.9567V66.18C183.583 65.5445 182.778 64.4713 182.778 62.2682ZM181.931 62.2541C181.931 64.33 181.225 65.5587 180.632 66.0953C180.039 65.5445 179.318 64.3159 179.318 62.2541V56.3229H181.931V62.2541Z" fill="black"/>
<path d="M198.99 65.5728H207.252V62.4377H198.129V63.1438H206.39V64.8667H198.129V67.9877H207.421V67.2816H198.99V65.5728Z" fill="black"/>
<path d="M207.252 55.3202H206.39V61.3362H207.252V58.6106H209.229V57.848H207.252V55.3202Z" fill="black"/>
<path d="M203.283 55.4897H197.366V60.7431H203.283V55.4897ZM202.422 60.0229H198.214V56.2099H202.422V60.0229Z" fill="black"/>
<path d="M222.221 55.3202H221.359V67.8323H222.221V61.435H224.325V60.7007H222.221V55.3202Z" fill="black"/>
<path d="M215.583 59.1755C214.807 59.1755 214.143 59.4015 213.635 59.8534C212.914 60.503 212.505 61.6045 212.505 63.172C212.505 64.7396 212.914 65.8552 213.635 66.5048C214.143 66.9567 214.807 67.1827 215.583 67.1827C216.36 67.1827 217.024 66.9567 217.532 66.5048C218.253 65.8552 218.662 64.7537 218.662 63.172C218.662 61.5904 218.253 60.503 217.532 59.8534C217.024 59.4015 216.36 59.1755 215.583 59.1755ZM217.01 65.8976C216.643 66.2648 216.162 66.4342 215.583 66.4342C215.004 66.4342 214.524 66.2648 214.157 65.8976C213.635 65.3609 213.366 64.443 213.366 63.172C213.366 61.9011 213.635 60.9831 214.157 60.4606C214.524 60.0934 215.004 59.9099 215.583 59.9099C216.162 59.9099 216.643 60.0934 217.01 60.4606C217.532 60.9831 217.801 61.9011 217.801 63.172C217.801 64.443 217.532 65.3609 217.01 65.8976Z" fill="black"/>
<path d="M215.979 54.9248H215.117V56.9301H211.954V57.7068H219.17V56.9301H215.979V54.9248Z" fill="black"/>
<path d="M237.543 58.7801H228.787V55.4049H227.926V59.5144H237.543V58.7801Z" fill="black"/>
<path d="M238.334 61.8304H227.05V62.593H238.334V61.8304Z" fill="black"/>
<path d="M228.787 64.1606H227.926V67.9029H237.713V67.1545H228.787V64.1606Z" fill="black"/>
<path d="M250.988 61.661C251.905 61.661 252.682 61.3927 253.233 60.8984C253.445 60.7007 253.642 60.4747 253.784 60.2064H257.145V62.4801H258.006V55.3202H257.145V56.6759H253.77C253.628 56.4217 253.445 56.1958 253.233 56.0122C252.682 55.5179 251.905 55.2496 250.988 55.2496C250.07 55.2496 249.293 55.5179 248.728 56.0122C248.121 56.5629 247.768 57.4103 247.768 58.4412C247.768 59.4721 248.121 60.3335 248.728 60.8984C249.293 61.3927 250.07 61.661 250.988 61.661ZM254.08 57.4244H257.145V59.4579H254.08C254.165 59.1473 254.207 58.8083 254.207 58.4412C254.207 58.074 254.165 57.7351 254.08 57.4244ZM249.293 56.6194C249.702 56.2099 250.296 55.9981 250.988 55.9981C251.679 55.9981 252.258 56.2099 252.668 56.6194C253.106 57.0431 253.36 57.6644 253.36 58.4412C253.36 59.2179 253.106 59.8534 252.668 60.2911C252.258 60.6866 251.679 60.9125 250.988 60.9125C250.296 60.9125 249.702 60.6866 249.293 60.2911C248.855 59.8534 248.615 59.232 248.615 58.4412C248.615 57.6503 248.855 57.0431 249.293 56.6194Z" fill="black"/>
<path d="M257.3 63.8923C256.41 63.3133 255.012 63.0591 253.416 63.0591C251.821 63.0591 250.423 63.3133 249.533 63.8923C248.912 64.3159 248.544 64.8667 248.544 65.6151C248.544 66.3636 248.912 66.9285 249.533 67.338C250.423 67.917 251.821 68.1571 253.416 68.1571C255.012 68.1571 256.41 67.917 257.3 67.338C257.921 66.9285 258.303 66.3636 258.303 65.6151C258.303 64.8667 257.921 64.3159 257.3 63.8923ZM256.778 66.7167C256.057 67.1968 254.829 67.4228 253.416 67.4228C252.004 67.4228 250.762 67.1968 250.055 66.7167C249.646 66.4342 249.406 66.0671 249.406 65.6151C249.406 65.1632 249.646 64.782 250.055 64.4995C250.762 64.0335 252.004 63.7934 253.416 63.7934C254.829 63.7934 256.057 64.0335 256.778 64.4995C257.201 64.782 257.441 65.1491 257.441 65.6151C257.441 66.0812 257.201 66.4342 256.778 66.7167Z" fill="black"/>
<path d="M272.058 55.3202V60.5736H269.247C269.205 58.5118 268.88 57.0007 268.075 56.1393C267.581 55.6026 266.903 55.3202 266.07 55.3202C265.237 55.3202 264.545 55.6026 264.065 56.1393C263.189 57.0855 262.892 58.8366 262.892 61.2373C262.892 63.6381 263.189 65.4033 264.065 66.3495C264.545 66.9003 265.237 67.1262 266.07 67.1262C266.903 67.1262 267.581 66.9003 268.075 66.3495C268.951 65.4174 269.247 63.6804 269.261 61.3362H272.058V67.8323H272.919V55.3202H272.058ZM267.454 65.8411C267.115 66.2083 266.649 66.406 266.07 66.406C265.491 66.406 265.039 66.2083 264.686 65.8411C263.994 65.0503 263.754 63.4545 263.754 61.2373C263.754 59.0202 263.994 57.4526 264.686 56.6618C265.039 56.2805 265.505 56.0687 266.07 56.0687C266.635 56.0687 267.115 56.2805 267.454 56.6618C268.16 57.4526 268.4 59.0343 268.4 61.2373C268.4 63.4404 268.16 65.0503 267.454 65.8411Z" fill="black"/>
<path d="M62.3411 19.5651C60.7258 18.836 58.7865 18.4714 56.5282 18.4714H46.0267V43.9911H50.766V36.6289H56.5282C58.7865 36.6289 60.7258 36.2643 62.3411 35.5352C63.9563 34.806 65.2019 33.763 66.0779 32.4009C66.9538 31.0388 67.3893 29.4236 67.3893 27.5501C67.3893 25.6767 66.9538 24.0614 66.0779 22.6994C65.2019 21.3373 63.9563 20.2942 62.3411 19.5651ZM61.0296 31.287C59.9714 32.1731 58.3966 32.6186 56.3105 32.6186H50.7711V22.4816H56.3105C58.4017 22.4816 59.9764 22.9171 61.0296 23.7931C62.0879 24.669 62.6145 25.9197 62.6145 27.5501C62.6145 29.1806 62.0879 30.4009 61.0296 31.287Z" fill="black"/>
<path d="M92.1797 22.7044C91.3037 21.3424 90.0581 20.2993 88.4429 19.5702C86.8277 18.841 84.8884 18.4765 82.6301 18.4765H72.1285V43.9962H76.8679V36.6339H82.6301C84.8884 36.6339 86.8277 36.2694 88.4429 35.5402C90.0581 34.8111 91.3037 33.768 92.1797 32.406C93.0557 31.0439 93.4911 29.4287 93.4911 27.5552C93.4911 25.6817 93.0557 24.0665 92.1797 22.7044ZM87.1315 31.292C86.0732 32.1781 84.4985 32.6237 82.4123 32.6237H76.873V22.4867H82.4123C84.5035 22.4867 86.0783 22.9222 87.1315 23.7981C88.1897 24.6741 88.7163 25.9248 88.7163 27.5552C88.7163 29.1856 88.1897 30.4059 87.1315 31.292Z" fill="black"/>
<path d="M104.833 18.4714L93.3493 43.9911H98.2355L100.762 38.0871H113.527L116.064 43.9911H121.021L109.502 18.4714H104.833ZM102.352 34.3655L107.132 23.1956L111.927 34.3655H102.352Z" fill="black"/>
<path d="M146.941 18.4714H141.619L129.001 31.5705V18.4714H124.262V43.9911H129.001V37.4542L133.067 33.2971L142.055 43.9911H147.594L136.206 29.8743L146.941 18.4714Z" fill="black"/>
<path d="M189.661 32.2541C188.714 31.768 187.681 31.373 186.562 31.0692C185.443 30.7654 184.314 30.4819 183.17 30.2135C182.025 29.9451 180.982 29.616 180.035 29.2312C179.088 28.8413 178.329 28.3198 177.757 27.6615C177.185 27.0033 176.901 26.1324 176.901 25.0387C176.901 24.0918 177.154 23.2361 177.666 22.4665C178.177 21.6968 178.967 21.0892 180.035 20.6234C181.104 20.1575 182.456 19.9297 184.081 19.9297C185.225 19.9297 186.41 20.1069 187.636 20.4563C188.861 20.8107 190.01 21.3474 191.079 22.0766L191.772 20.5829C190.8 19.879 189.626 19.317 188.253 18.9069C186.881 18.4917 185.489 18.2891 184.081 18.2891C181.99 18.2891 180.278 18.6031 178.942 19.236C177.605 19.8689 176.623 20.6943 175.99 21.7171C175.357 22.7399 175.043 23.8538 175.043 25.0691C175.043 26.4058 175.326 27.4944 175.899 28.3299C176.471 29.1654 177.23 29.8287 178.177 30.3148C179.124 30.8009 180.172 31.1958 181.311 31.4996C182.456 31.8034 183.585 32.092 184.704 32.3553C185.823 32.6237 186.856 32.9528 187.803 33.3376C188.75 33.7275 189.514 34.2491 190.101 34.9073C190.684 35.5656 190.977 36.4365 190.977 37.5302C190.977 38.4568 190.714 39.2922 190.193 40.0467C189.671 40.8011 188.866 41.4037 187.787 41.8493C186.704 42.2999 185.317 42.5227 183.615 42.5227C181.914 42.5227 180.304 42.2138 178.785 41.591C177.266 40.9733 176.071 40.2138 175.195 39.3125L174.354 40.6999C175.276 41.7227 176.582 42.5531 178.273 43.1961C179.959 43.8392 181.757 44.1633 183.651 44.1633C185.767 44.1633 187.499 43.8544 188.846 43.2316C190.193 42.6139 191.195 41.7835 191.853 40.7505C192.512 39.7176 192.836 38.6036 192.836 37.4137C192.836 36.1023 192.542 35.0339 191.96 34.2035C191.377 33.3782 190.613 32.7199 189.661 32.2338V32.2541Z" fill="black"/>
<path d="M211.859 32.2541C210.912 31.768 209.879 31.373 208.76 31.0692C207.641 30.7654 206.512 30.4819 205.368 30.2135C204.223 29.9451 203.18 29.616 202.233 29.2312C201.287 28.8413 200.527 28.3198 199.955 27.6615C199.383 27.0033 199.099 26.1324 199.099 25.0387C199.099 24.0918 199.352 23.2361 199.864 22.4665C200.375 21.6968 201.165 21.0892 202.233 20.6234C203.302 20.1575 204.654 19.9297 206.279 19.9297C207.423 19.9297 208.608 20.1069 209.834 20.4563C211.059 20.8107 212.208 21.3474 213.277 22.0766L213.97 20.5829C212.998 19.879 211.824 19.317 210.451 18.9069C209.079 18.4917 207.687 18.2891 206.279 18.2891C204.188 18.2891 202.476 18.6031 201.14 19.236C199.803 19.8689 198.821 20.6943 198.188 21.7171C197.555 22.7399 197.241 23.8538 197.241 25.0691C197.241 26.4058 197.524 27.4944 198.097 28.3299C198.669 29.1654 199.428 29.8287 200.375 30.3148C201.322 30.8009 202.37 31.1958 203.509 31.4996C204.654 31.8034 205.783 32.092 206.902 32.3553C208.021 32.6237 209.054 32.9528 210.001 33.3376C210.948 33.7275 211.712 34.2491 212.3 34.9073C212.882 35.5656 213.176 36.4365 213.176 37.5302C213.176 38.4568 212.912 39.2922 212.391 40.0467C211.869 40.8011 211.064 41.4037 209.986 41.8493C208.902 42.2999 207.515 42.5227 205.813 42.5227C204.112 42.5227 202.502 42.2138 200.983 41.591C199.464 40.9733 198.269 40.2138 197.393 39.3125L196.552 40.6999C197.474 41.7227 198.78 42.5531 200.471 43.1961C202.157 43.8392 203.955 44.1633 205.849 44.1633C207.965 44.1633 209.697 43.8544 211.044 43.2316C212.391 42.6139 213.393 41.7835 214.051 40.7505C214.71 39.7176 215.034 38.6036 215.034 37.4137C215.034 36.1023 214.74 35.0339 214.158 34.2035C213.576 33.3782 212.811 32.7199 211.859 32.2338V32.2541Z" fill="black"/>
<path d="M228.812 18.4714L217.075 43.9911H219.08L222.335 36.8112H237.136L240.407 43.9911H242.412L230.675 18.4714H228.817H228.812ZM223.044 35.2415L229.723 20.5221L236.422 35.2415H223.044Z" fill="black"/>
<path d="M273 43.9911L272.959 18.4714H271.43L260.037 38.1985L248.609 18.4714H247.04V43.9911H248.862V22.2234L259.546 40.6037H260.458L271.142 22.1576L271.177 43.9911H273Z" fill="black"/>
<path d="M155.615 27.7932C153.665 27.0236 151.457 27.9805 150.688 29.93C149.918 31.8794 150.875 34.087 152.825 34.8567C154.774 35.6263 156.982 34.6693 157.751 32.7199C158.521 30.7705 157.564 28.5628 155.615 27.7932Z" fill="#F97B0A"/>
<path d="M166.202 27.7932C164.253 27.0236 162.045 27.9805 161.275 29.93C160.506 31.8794 161.463 34.087 163.412 34.8567C165.361 35.6263 167.569 34.6693 168.339 32.7199C169.108 30.7705 168.151 28.5628 166.202 27.7932Z" fill="#F89E32"/>
</svg>
