<svg width="26" height="26" viewBox="0 0 26 26" fill="none" xmlns="http://www.w3.org/2000/svg">
<path d="M0 17.2996C0 14.206 0 11.1175 0 8.02393C0.0150417 7.95875 0.045125 7.88856 0.0501388 7.82338C0.0701944 7.51753 0.0902499 7.21168 0.100278 6.90584C0.135375 6.04846 0.325902 5.22117 0.621722 4.41895C1.0479 3.26576 1.76489 2.32816 2.72254 1.58109C3.84063 0.708676 5.15427 0.302551 6.54312 0.162162C7.41553 0.0769262 8.29798 0.0819401 9.18042 0.0518568C9.49128 0.041829 9.79713 0.0518568 10.108 0.0468429C10.1832 0.0468429 10.2584 0.0167596 10.3336 -0.0032959C11.8729 -0.0032959 13.4071 -0.0032959 14.9464 -0.0032959C14.9965 0.0117458 15.0467 0.0468429 15.0968 0.0468429C15.9341 0.0668985 16.7765 0.0668985 17.6138 0.101996C18.1803 0.127065 18.7469 0.187232 19.3135 0.252412C20.1107 0.342662 20.8628 0.59837 21.5697 0.964384C22.3268 1.35045 22.9887 1.87691 23.5402 2.54376C24.0366 3.14041 24.4076 3.79221 24.6733 4.51421C25.0845 5.61225 25.2148 6.76043 25.2248 7.92365C25.2248 8.02393 25.2549 8.12421 25.275 8.22449C25.275 11.1977 25.275 14.176 25.275 17.1492C25.2599 17.1843 25.2299 17.2144 25.2248 17.2495C25.2048 17.6205 25.1998 17.9965 25.1697 18.3676C25.1296 18.8188 25.1095 19.2751 25.0093 19.7113C24.6833 21.1453 24.0717 22.4238 22.9435 23.4216C22.2667 24.0182 21.5196 24.4695 20.6773 24.7653C19.5692 25.1514 18.421 25.2717 17.2528 25.2717C17.1525 25.2717 17.0522 25.3018 16.9519 25.3218C14.079 25.3218 11.201 25.3218 8.32806 25.3218C8.27792 25.3068 8.22778 25.2767 8.17764 25.2717C7.47069 25.2165 6.75871 25.1865 6.05176 25.1163C5.3097 25.036 4.59773 24.8104 3.92086 24.4945C3.09357 24.1085 2.38159 23.562 1.77491 22.87C1.32367 22.3536 0.972693 21.782 0.716985 21.1603C0.230639 20.0021 0.045125 18.7787 0.0501388 17.5252C0.0501388 17.45 0.0150417 17.3748 0 17.2996ZM16.8767 23.0154C16.8767 23.0054 16.8767 23.0004 16.8767 22.9904C17.4032 22.9503 17.9296 22.9051 18.4611 22.865C19.2333 22.8049 19.9603 22.5993 20.6321 22.2182C21.3742 21.8021 21.9257 21.2004 22.3068 20.4483C22.6427 19.7765 22.7931 19.0394 22.8583 18.2974C22.9235 17.5603 22.9636 16.8233 22.9586 16.0863C22.9536 13.6094 22.9285 11.1275 22.9134 8.65067C22.9084 7.81335 22.8784 6.98104 22.7179 6.15877C22.5374 5.25125 22.1664 4.44402 21.5146 3.7872C20.938 3.20559 20.231 2.85963 19.4489 2.64905C18.4912 2.38833 17.5035 2.37328 16.5258 2.36326C13.7782 2.3432 11.0356 2.38833 8.28795 2.39835C7.52584 2.39835 6.76874 2.43847 6.02167 2.60392C4.90358 2.85462 3.96097 3.38609 3.28911 4.34875C2.73257 5.14596 2.48689 6.05348 2.41669 7.0011C2.34148 7.97881 2.32644 8.95651 2.3114 9.93923C2.29636 10.8518 2.29636 11.7593 2.3114 12.6718C2.33647 14.4718 2.37157 16.2668 2.41168 18.0667C2.42672 18.8439 2.59218 19.591 2.90304 20.3079C3.30415 21.2255 3.971 21.8923 4.8384 22.3436C5.52029 22.6996 6.27237 22.85 7.03448 22.9102C7.8367 22.9703 8.64394 23.0104 9.44616 23.0104C11.918 23.0255 14.3949 23.0154 16.8767 23.0154Z" fill="white"/>
<path fill-rule="evenodd" clip-rule="evenodd" d="M6.11725 12.6883C6.1022 9.11844 9.01026 6.01484 12.9261 6.17027C16.2403 6.30063 19.2286 9.01816 19.1433 12.8488C19.0631 16.3134 16.3055 19.2315 12.53 19.1913C9.01527 19.1512 6.1373 16.3435 6.11725 12.6883ZM16.7968 12.6783C16.8319 10.3519 14.9066 8.46663 12.6253 8.48669C10.2487 8.50674 8.4487 10.3368 8.44369 12.6783C8.43868 14.9396 10.1986 16.7195 12.3946 16.8448C14.9066 16.9953 16.872 14.8794 16.7968 12.6783Z" fill="white"/>
<path fill-rule="evenodd" clip-rule="evenodd" d="M17.8494 5.93637C17.7542 5.15922 18.5664 4.35198 19.4388 4.39209C20.1709 4.42719 20.938 5.08902 20.9179 5.98149C20.8979 6.73358 20.221 7.49569 19.3436 7.47563C18.5865 7.46059 17.7792 6.79374 17.8494 5.93637Z" fill="white"/>
</svg>
