<svg width="20" height="22" viewBox="0 0 20 22" fill="none" xmlns="http://www.w3.org/2000/svg">
<path fill-rule="evenodd" clip-rule="evenodd" d="M3.25 6.70031C3.25 3.10215 6.30876 0.25 10 0.25C13.608 0.25 16.6116 2.97488 16.7454 6.45788L17.2231 6.61714C17.6863 6.77148 18.0922 6.90676 18.4142 7.05657C18.7623 7.21853 19.0814 7.42714 19.3253 7.76554C19.5692 8.10394 19.6662 8.47259 19.7098 8.85407C19.7501 9.20695 19.75 9.63482 19.75 10.123V15.8712C19.75 16.4806 19.7501 17.0005 19.7028 17.4176C19.653 17.8563 19.5418 18.2875 19.2404 18.6553C19.0674 18.8665 18.8573 19.0445 18.6205 19.1805C18.2081 19.4173 17.7645 19.4561 17.3236 19.433C16.9044 19.4111 16.3915 19.3256 15.7904 19.2254L15.7488 19.2185C14.456 19.003 13.9351 18.9216 13.4274 18.9641C13.2417 18.9796 13.0571 19.0074 12.875 19.0471C12.3774 19.1558 11.8988 19.3891 10.716 19.9805C10.6749 20.0011 10.6342 20.0214 10.594 20.0415C9.21137 20.7331 8.35952 21.1592 7.44031 21.2923C7.16384 21.3323 6.88482 21.3522 6.60546 21.3516C5.67668 21.3499 4.77995 21.0508 3.32536 20.5657C3.28328 20.5517 3.24074 20.5375 3.19772 20.5231L2.81415 20.3953L2.77684 20.3828C2.31373 20.2285 1.90783 20.0932 1.5858 19.9434C1.23766 19.7815 0.918614 19.5729 0.674708 19.2345C0.430803 18.8961 0.333789 18.5274 0.290236 18.1459C0.249948 17.793 0.249973 17.3652 0.250002 16.877L0.250002 11.8572C0.249971 11.0711 0.249945 10.4085 0.317291 9.88948C0.387586 9.34776 0.546523 8.81811 0.982624 8.4198C1.11082 8.30271 1.25213 8.20085 1.40375 8.11626C1.91953 7.8285 2.47226 7.84521 3.00841 7.94983C3.11717 7.97105 3.23109 7.99718 3.35019 8.02754C3.28411 7.5817 3.25 7.13723 3.25 6.70031ZM3.74869 9.70929C3.32072 9.57126 2.99224 9.47496 2.72113 9.42206C2.32599 9.34496 2.19646 9.39166 2.13459 9.42618C2.08405 9.45438 2.03694 9.48833 1.99421 9.52736C1.9419 9.57514 1.85663 9.68325 1.80482 10.0825C1.75151 10.4933 1.75 11.0575 1.75 11.908V16.8377C1.75 17.3768 1.75114 17.7181 1.78055 17.9758C1.80779 18.2143 1.85234 18.303 1.89157 18.3574C1.9308 18.4118 2.00083 18.4821 2.21849 18.5834C2.45364 18.6928 2.77709 18.8018 3.28849 18.9723L3.67205 19.1001C5.29563 19.6413 5.95089 19.8504 6.6083 19.8516C6.81478 19.852 7.02101 19.8374 7.22537 19.8078C7.87582 19.7136 8.50094 19.411 10.0452 18.6389C10.0765 18.6232 10.1074 18.6078 10.138 18.5925C11.1987 18.062 11.852 17.7352 12.555 17.5817C12.8014 17.5279 13.051 17.4903 13.3023 17.4693C14.0193 17.4093 14.7344 17.5286 15.8945 17.7221C15.9278 17.7276 15.9614 17.7332 15.9954 17.7389C16.6497 17.8479 17.0779 17.9181 17.4019 17.9351C17.7138 17.9514 17.821 17.9098 17.8735 17.8797C17.9524 17.8344 18.0225 17.775 18.0801 17.7046C18.1185 17.6578 18.1771 17.5589 18.2123 17.2486C18.2489 16.9262 18.25 16.4923 18.25 15.829V10.1623C18.25 9.62321 18.2489 9.28189 18.2195 9.02422C18.1922 8.7857 18.1477 8.69703 18.1084 8.64261C18.0692 8.58818 17.9992 8.51787 17.7815 8.41661C17.5464 8.30722 17.2229 8.19821 16.7115 8.02774L16.6527 8.00813C16.4625 9.30952 15.9996 10.6233 15.3173 11.7959C14.4048 13.364 13.0697 14.7299 11.3971 15.4595C10.5094 15.8468 9.49064 15.8468 8.60291 15.4595C6.93027 14.7299 5.59519 13.364 4.68273 11.7959C4.29871 11.136 3.9842 10.4313 3.74869 9.70929ZM10 1.75C7.06383 1.75 4.75 4.00208 4.75 6.70031C4.75 8.11775 5.18744 9.68084 5.97922 11.0415C6.77121 12.4026 7.88753 13.5109 9.20269 14.0847C9.70798 14.3051 10.292 14.3051 10.7973 14.0847C12.1125 13.5109 13.2288 12.4026 14.0208 11.0415C14.8126 9.68084 15.25 8.11775 15.25 6.70031C15.25 4.00208 12.9362 1.75 10 1.75ZM10 5.75C9.30965 5.75 8.75 6.30964 8.75 7C8.75 7.69036 9.30965 8.25 10 8.25C10.6904 8.25 11.25 7.69036 11.25 7C11.25 6.30964 10.6904 5.75 10 5.75ZM7.25 7C7.25 5.48122 8.48122 4.25 10 4.25C11.5188 4.25 12.75 5.48122 12.75 7C12.75 8.51878 11.5188 9.75 10 9.75C8.48122 9.75 7.25 8.51878 7.25 7Z" fill="#222222"/>
</svg>
