<svg width="52" height="52" viewBox="0 0 52 52" fill="none" xmlns="http://www.w3.org/2000/svg">
<path d="M21.4039 18.929C20.7205 18.2456 19.6124 18.2456 18.929 18.929C18.2456 19.6124 18.2456 20.7205 18.929 21.4039L23.5249 25.9998L18.929 30.5957C18.2456 31.2791 18.2456 32.3872 18.929 33.0706C19.6125 33.754 20.7205 33.754 21.4039 33.0706L25.9998 28.4747L30.5956 33.0705C31.279 33.7539 32.3871 33.7539 33.0705 33.0705C33.7539 32.3871 33.7539 31.2791 33.0705 30.5957L28.4747 25.9998L33.0705 21.404C33.754 20.7205 33.754 19.6125 33.0705 18.9291C32.3871 18.2457 31.2791 18.2457 30.5957 18.9291L25.9998 23.525L21.4039 18.929Z" fill="#C5C5C5"/>
<path fill-rule="evenodd" clip-rule="evenodd" d="M25.9998 0.916504C12.1467 0.916504 0.916504 12.1467 0.916504 25.9998C0.916504 39.853 12.1467 51.0832 25.9998 51.0832C39.853 51.0832 51.0832 39.853 51.0832 25.9998C51.0832 12.1467 39.853 0.916504 25.9998 0.916504ZM4.4165 25.9998C4.4165 14.0797 14.0797 4.4165 25.9998 4.4165C37.92 4.4165 47.5832 14.0797 47.5832 25.9998C47.5832 37.92 37.92 47.5832 25.9998 47.5832C14.0797 47.5832 4.4165 37.92 4.4165 25.9998Z" fill="#C5C5C5"/>
</svg>
